<svg width="512" height="512" viewBox="0 0 512 512" fill="none" xmlns="http://www.w3.org/2000/svg">
<g clip-path="url(#clip0_44_35)">
<path d="M263.07 339.891C261.21 338.031 258.63 336.961 256 336.961C253.37 336.961 250.79 338.03 248.93 339.891C247.07 341.751 246 344.33 246 346.961C246 349.591 247.07 352.171 248.93 354.03C250.79 355.891 253.37 356.961 256 356.961C258.63 356.961 261.21 355.891 263.07 354.03C264.93 352.171 266 349.591 266 346.961C266 344.33 264.93 341.751 263.07 339.891Z" fill="#58D158"/>
<path d="M509.07 141.481C507.21 139.621 504.63 138.551 502 138.551C499.37 138.551 496.79 139.62 494.93 141.481C493.07 143.341 492 145.921 492 148.551C492 151.181 493.07 153.761 494.93 155.62C496.79 157.48 499.37 158.551 502 158.551C504.63 158.551 507.21 157.481 509.07 155.62C510.93 153.761 512 151.181 512 148.551C512 145.921 510.93 143.341 509.07 141.481Z" fill="#58D158"/>
<path d="M502 106.976C507.523 106.976 512 102.498 512 96.9762V29.9542C512 13.4432 498.542 0.0112305 482 0.0112305H30C13.458 0.0112305 0 13.4432 0 29.9532V362.978C0 379.489 13.458 392.921 30 392.921H202.168V447.185C173.927 449.472 151.642 473.17 151.642 501.989C151.642 507.511 156.119 511.989 161.642 511.989H350.354C355.877 511.989 360.354 507.511 360.354 501.989C360.354 473.17 338.07 449.473 309.831 447.185V392.921H482C498.542 392.921 512 379.488 512 362.978V190.348C512 184.826 507.523 180.348 502 180.348C496.477 180.348 492 184.826 492 190.348V301.032H20V29.9542C20 24.4722 24.486 20.0122 30 20.0122H482C487.514 20.0122 492 24.4722 492 29.9542V96.9762C492 102.498 496.477 106.976 502 106.976ZM338.9 491.991H173.098C177.411 477.549 190.818 466.989 206.644 466.989H305.353C321.179 466.989 334.586 477.548 338.9 491.991ZM222.168 446.989V393.991H289.831V446.989H222.168ZM492 321.032V362.979C492 368.461 487.514 372.922 482 372.922H30C24.486 372.922 20 368.461 20 362.979V321.032H492Z" fill="#58D158"/>
<path d="M234.21 176.293H205.782C200.259 176.293 195.782 180.771 195.782 186.293C195.782 191.815 200.259 196.293 205.782 196.293H210.067L165.078 241.282L128.153 204.357C124.248 200.453 117.916 200.453 114.01 204.357L56.928 261.439C53.023 265.344 53.022 271.676 56.928 275.582C58.881 277.534 61.44 278.511 63.999 278.511C66.558 278.511 69.118 277.534 71.07 275.582L121.082 225.571L158.007 262.496C159.882 264.371 162.426 265.425 165.078 265.425C167.73 265.425 170.274 264.371 172.149 262.496L224.209 210.435V214.72C224.21 220.244 228.687 224.721 234.21 224.721C239.733 224.721 244.21 220.243 244.21 214.721V186.293C244.21 180.771 239.733 176.293 234.21 176.293Z" fill="#58D158"/>
<path d="M362.333 214.511H296C290.477 214.511 286 218.989 286 224.511C286 230.033 290.477 234.511 296 234.511H362.333C367.856 234.511 372.333 230.034 372.333 224.511C372.333 218.989 367.856 214.511 362.333 214.511Z" fill="#58D158"/>
<path d="M448 214.511H411C405.477 214.511 401 218.989 401 224.511C401 230.033 405.477 234.511 411 234.511H448C453.523 234.511 458 230.033 458 224.511C458 218.989 453.523 214.511 448 214.511Z" fill="#58D158"/>
<path d="M303.07 261.441C301.21 259.581 298.63 258.511 296 258.511C293.37 258.511 290.79 259.581 288.93 261.441C287.07 263.301 286 265.881 286 268.511C286 271.141 287.07 273.721 288.93 275.58C290.79 277.44 293.37 278.511 296 278.511C298.63 278.511 301.21 277.441 303.07 275.58C304.93 273.721 306 271.141 306 268.511C306 265.881 304.93 263.301 303.07 261.441Z" fill="#58D158"/>
<path d="M448 258.511H339C333.477 258.511 329 262.989 329 268.511C329 274.033 333.477 278.511 339 278.511H448C453.523 278.511 458 274.033 458 268.511C458 262.989 453.523 258.511 448 258.511Z" fill="#58D158"/>
<path d="M357.119 54.0112C318.521 54.0112 287.119 85.4132 287.119 124.011C287.119 162.609 318.521 194.011 357.119 194.011C395.717 194.011 427.119 162.609 427.119 124.011C427.119 85.4132 395.717 54.0112 357.119 54.0112ZM357.119 174.011C329.549 174.011 307.119 151.581 307.119 124.011C307.119 99.8652 324.324 79.6632 347.119 75.0172V124.011C347.119 129.533 351.596 134.011 357.119 134.011H406.113C401.467 156.806 381.266 174.011 357.119 174.011ZM367.119 114.011V75.0172C386.682 79.0042 402.126 94.4482 406.113 114.011H367.119Z" fill="#58D158"/>
<path d="M235.887 63.2489C234.965 59.7869 232.261 57.0839 228.8 56.1619C227.079 55.7009 186.317 45.2659 156.869 74.7149C152.402 79.1819 148.852 83.9159 146.037 88.7389C143.222 83.9159 139.672 79.1819 135.205 74.7149C105.757 45.2669 64.995 55.7009 63.274 56.1619C59.813 57.0839 57.109 59.7869 56.187 63.2489C55.729 64.9699 45.293 105.73 74.741 135.179C91.939 152.376 113.089 156.054 128.035 156.054C130.959 156.054 133.634 155.911 136.007 155.703V163.511C136.008 169.034 140.485 173.511 146.008 173.511C151.531 173.511 156.008 169.033 156.008 163.511V155.698C158.395 155.909 161.09 156.054 164.039 156.054C178.985 156.054 200.138 152.374 217.334 135.179C246.781 105.731 236.346 64.9699 235.887 63.2489ZM136.008 129.441V132.067C135.93 133.374 135.823 134.586 135.701 135.672C125.45 136.827 104.613 136.766 88.884 121.036C73.148 105.301 73.239 84.5719 74.455 74.4499C84.569 73.2589 105.385 73.1789 121.063 88.8579C132.322 100.117 135.551 113.989 136.056 124.72C135.996 126.357 135.984 127.934 136.008 129.441ZM203.192 121.036C187.471 136.756 166.652 136.824 156.394 135.674C156.238 134.253 156.108 132.621 156.036 130.831C156.09 129.067 156.097 127.197 156.037 125.238C156.474 114.42 159.617 100.252 171.012 88.8579C186.757 73.1119 207.498 73.2099 217.615 74.4309C218.836 84.5679 218.928 105.299 203.192 121.036Z" fill="#58D158"/>
</g>
<defs>
<clipPath id="clip0_44_35">
<rect width="512" height="512" fill="white"/>
</clipPath>
</defs>
</svg>
