<svg width="64" height="64" viewBox="0 0 64 64" fill="none" xmlns="http://www.w3.org/2000/svg">
<path d="M18.23 55.2202C13.497 52.4136 9.73443 48.2279 7.4463 43.2236C5.15817 38.2193 4.4537 32.6353 5.42722 27.2195C6.40074 21.8037 9.00577 16.8146 12.8935 12.9204C16.7811 9.0262 21.7658 6.41282 27.18 5.43024C27.3113 5.40725 27.4368 5.35863 27.5494 5.28715C27.6619 5.21566 27.7593 5.12271 27.8359 5.0136C27.9125 4.90449 27.9668 4.78136 27.9959 4.65124C28.0249 4.52112 28.028 4.38656 28.005 4.25524C27.982 4.12391 27.9334 3.9984 27.8619 3.88587C27.7904 3.77334 27.6975 3.67599 27.5884 3.59939C27.4793 3.52278 27.3561 3.46841 27.226 3.43939C27.0959 3.41036 26.9613 3.40725 26.83 3.43024C20.9831 4.49572 15.6047 7.33191 11.4228 11.5549C7.24094 15.7779 4.45754 21.1839 3.44935 27.0409C2.44116 32.898 3.25688 38.9235 5.78608 44.3017C8.31528 49.6799 12.4358 54.1511 17.59 57.1102L14.11 60.0002L27 59.5502L17.46 50.8702L18.23 55.2202Z" fill="#58D158" stroke="#58D158" stroke-width="0.5"/>
<path d="M46.42 6.85L49.89 4L37 4.45L46.54 13.13L45.77 8.79C50.4995 11.598 54.2585 15.7834 56.5441 20.7863C58.8298 25.7891 59.533 31.3706 58.5598 36.784C57.5865 42.1975 54.9831 47.1845 51.098 51.0779C47.2129 54.9713 42.2314 57.5852 36.82 58.57C36.5548 58.5939 36.3099 58.7221 36.1393 58.9265C35.9686 59.1309 35.8862 59.3948 35.91 59.66C35.9339 59.9252 36.0621 60.1701 36.2666 60.3407C36.471 60.5114 36.7348 60.5939 37 60.57H37.18C43.0386 59.5136 48.4301 56.6799 52.6226 52.4536C56.815 48.2272 59.6052 42.813 60.6143 36.9461C61.6235 31.0792 60.8026 25.0439 58.2632 19.6597C55.7238 14.2754 51.5889 9.80311 46.42 6.85Z" fill="#58D158" stroke="#58D158" stroke-width="0.5"/>
<path d="M35.24 46.43C35.6107 46.5842 36.0085 46.6624 36.41 46.66C38.66 46.66 41.8 44.66 44.33 42.16C47.71 38.78 50.1 34.31 48.11 32.32C46.12 30.33 41.65 32.71 38.27 36.1C35.37 39 33.27 42.68 33.91 44.93L33 45.61V35.79L35.24 34.11C35.6107 34.2642 36.0085 34.3424 36.41 34.34C38.66 34.34 41.8 32.34 44.33 29.84C47.71 26.45 50.1 22 48.11 20C46.12 18 41.66 20.39 38.27 23.78C35.37 26.68 33.27 30.36 33.91 32.61L33 33.29V27C35.16 26 36.29 21.78 36.29 17.6C36.29 12.84 34.81 8 32 8C29.19 8 27.71 12.84 27.71 17.63C27.71 21.81 28.83 26.03 31 27.03V33.29L30.09 32.61C30.78 30.36 28.62 26.68 25.73 23.78C22.35 20.39 17.88 18 15.89 20C13.9 22 16.28 26.46 19.67 29.84C22.2 32.37 25.34 34.34 27.59 34.34C27.9915 34.3424 28.3893 34.2642 28.76 34.11L31 35.79V45.61L30.09 44.93C30.78 42.68 28.62 39 25.73 36.1C22.35 32.72 17.88 30.34 15.89 32.32C13.9 34.3 16.28 38.78 19.67 42.16C22.2 44.69 25.34 46.66 27.59 46.66C27.9915 46.6624 28.3893 46.5842 28.76 46.43L31 48.11V55C31 55.2652 31.1054 55.5196 31.2929 55.7071C31.4804 55.8946 31.7348 56 32 56C32.2652 56 32.5196 55.8946 32.7071 55.7071C32.8947 55.5196 33 55.2652 33 55V48.11L35.24 46.43ZM39.68 37.52C42.44 34.76 45.03 33.59 46.17 33.59C46.3529 33.5731 46.5354 33.6268 46.68 33.74C47.25 34.31 46.25 37.4 42.9 40.74C39.55 44.08 36.46 45.08 35.9 44.52C35.34 43.96 36.34 40.86 39.69 37.51L39.68 37.52ZM39.68 25.2C42.44 22.44 45.03 21.27 46.17 21.27C46.3529 21.2531 46.5354 21.3068 46.68 21.42C47.25 21.99 46.25 25.08 42.9 28.42C39.55 31.76 36.46 32.76 35.9 32.2C35.34 31.64 36.34 28.53 39.69 25.19L39.68 25.2ZM21.08 28.43C17.74 25.09 16.73 21.99 17.3 21.43C17.4447 21.3168 17.6271 21.2631 17.81 21.28C18.95 21.28 21.54 22.44 24.3 25.21C27.64 28.56 28.65 31.65 28.08 32.21C27.51 32.77 24.43 31.77 21.08 28.42V28.43ZM21.08 40.75C17.74 37.41 16.73 34.31 17.3 33.75C17.4447 33.6368 17.6271 33.5831 17.81 33.6C18.95 33.6 21.54 34.76 24.3 37.53C27.64 40.87 28.65 43.97 28.08 44.53C27.51 45.09 24.43 44.09 21.08 40.74V40.75ZM29.71 17.63C29.71 12.89 31.19 10 32 10C32.81 10 34.29 12.89 34.29 17.63C34.29 21.17 33.46 23.68 32.71 24.72C32.5231 24.5368 32.2718 24.4341 32.01 24.4341C31.7483 24.4341 31.4969 24.5368 31.31 24.72C30.54 23.68 29.71 21.17 29.71 17.63Z" fill="#58D158" stroke="#58D158" stroke-width="0.5"/>
</svg>
