<svg width="512" height="512" viewBox="0 0 512 512" fill="none" xmlns="http://www.w3.org/2000/svg">
<path d="M466 89.94C466 84.418 461.522 79.94 456 79.94C455.735 79.94 455.475 79.96 455.215 79.98C416.979 79.556 386 48.334 386 10C386 4.478 381.522 0 376 0H136C130.478 0 126 4.478 126 10C126 48.598 94.598 80 56 80C50.478 80 46 84.478 46 90V255.39C46 381.116 125.21 430.176 195.097 473.461C214.703 485.606 233.223 497.075 249.898 509.922C251.696 511.308 253.848 512 256.001 512C258.154 512 260.306 511.308 262.104 509.922C278.904 496.981 297.483 485.456 317.153 473.256C388.89 428.759 466 380.338 466 255.39V90C466 89.99 465.999 89.98 465.999 89.97C465.999 89.96 466 89.95 466 89.94ZM446 255.39C446 369.803 375.138 413.755 306.609 456.26C289.572 466.827 272.022 477.713 255.999 489.489C240.081 477.798 222.599 466.969 205.628 456.458C136.982 413.941 66 369.978 66 255.39V99.448C107.652 94.822 140.822 61.652 145.448 20H366.552C371.178 61.652 404.348 94.822 446 99.448V255.39Z" fill="#58D158"/>
<path d="M256 86C173.29 86 106 153.29 106 236C106 318.71 173.29 386 256 386C338.71 386 406 318.71 406 236C406 153.29 338.71 86 256 86ZM256 366C184.317 366 126 307.683 126 236C126 164.317 184.317 106 256 106C327.683 106 386 164.317 386 236C386 307.683 327.683 366 256 366Z" fill="#58D158"/>
<path d="M260.677 227.875C245.771 219.995 236 214.266 236 206.71C236 195.682 244.972 186.71 256 186.71C267.028 186.71 276 195.682 276 206.71C276 212.232 280.478 216.71 286 216.71C291.522 216.71 296 212.232 296 206.71C296 188.106 283.233 172.428 266 167.976V156.71C266 151.188 261.522 146.71 256 146.71C250.478 146.71 246 151.188 246 156.71V167.976C228.767 172.428 216 188.106 216 206.71C216 226.882 234.771 236.803 251.331 245.557C266.232 253.434 276 259.161 276 266.71C276 277.738 267.028 286.71 256 286.71C244.972 286.71 236 277.738 236 266.71C236 261.188 231.522 256.71 226 256.71C220.478 256.71 216 261.188 216 266.71C216 285.314 228.767 300.992 246 305.444V316.71C246 322.232 250.478 326.71 256 326.71C261.522 326.71 266 322.232 266 316.71V305.444C283.233 300.992 296 285.314 296 266.71C296 246.546 277.234 236.626 260.677 227.875Z" fill="#58D158"/>
</svg>
