<svg width="100" height="100" viewBox="0 0 100 100" fill="none" xmlns="http://www.w3.org/2000/svg">
<path d="M50 68.5C44.5647 68.5053 39.3535 70.6668 35.5102 74.5102C31.6668 78.3535 29.5053 83.5647 29.5 89C29.5 89.3978 29.658 89.7794 29.9393 90.0607C30.2206 90.342 30.6022 90.5 31 90.5H69C69.3978 90.5 69.7794 90.342 70.0607 90.0607C70.342 89.7794 70.5 89.3978 70.5 89C70.4947 83.5647 68.3332 78.3535 64.4898 74.5102C60.6465 70.6668 55.4353 68.5053 50 68.5ZM32.56 87.5C32.9372 83.1358 34.9374 79.0718 38.1654 76.1108C41.3934 73.1497 45.6146 71.5069 49.995 71.5069C54.3754 71.5069 58.5966 73.1497 61.8246 76.1108C65.0526 79.0718 67.0528 83.1358 67.43 87.5H32.56Z" fill="#58D158" stroke="#58D158" stroke-width="0.5"/>
<path d="M50 65.5C52.0767 65.5 54.1068 64.8842 55.8335 63.7304C57.5602 62.5767 58.906 60.9368 59.7007 59.0182C60.4955 57.0996 60.7034 54.9884 60.2982 52.9516C59.8931 50.9148 58.8931 49.0438 57.4246 47.5754C55.9562 46.1069 54.0852 45.1069 52.0484 44.7018C50.0116 44.2966 47.9004 44.5046 45.9818 45.2993C44.0632 46.094 42.4233 47.4398 41.2696 49.1665C40.1158 50.8932 39.5 52.9233 39.5 55C39.5026 57.784 40.6097 60.4531 42.5783 62.4217C44.5469 64.3903 47.216 65.4974 50 65.5ZM50 47.5C51.4834 47.5 52.9334 47.9399 54.1668 48.764C55.4001 49.5881 56.3614 50.7594 56.9291 52.1299C57.4968 53.5003 57.6453 55.0083 57.3559 56.4632C57.0665 57.918 56.3522 59.2544 55.3033 60.3033C54.2544 61.3522 52.918 62.0665 51.4632 62.3559C50.0083 62.6453 48.5003 62.4968 47.1299 61.9291C45.7594 61.3614 44.5881 60.4002 43.764 59.1668C42.9399 57.9334 42.5 56.4834 42.5 55C42.5026 53.0117 43.2937 51.1056 44.6996 49.6996C46.1056 48.2937 48.0117 47.5026 50 47.5Z" fill="#58D158" stroke="#58D158" stroke-width="0.5"/>
<path d="M73.3 51.4999C70.604 51.4827 67.9306 51.9922 65.43 52.9999C65.2475 53.0741 65.0813 53.1836 64.9411 53.322C64.8008 53.4604 64.6892 53.625 64.6126 53.8066C64.536 53.9881 64.4959 54.183 64.4946 54.38C64.4933 54.577 64.5308 54.7724 64.605 54.9549C64.6792 55.1375 64.7886 55.3036 64.927 55.4439C65.0654 55.5841 65.2301 55.6957 65.4116 55.7723C65.5932 55.8489 65.788 55.889 65.9851 55.8903C66.1821 55.8916 66.3775 55.8541 66.56 55.7799C68.7018 54.9183 70.9914 54.4835 73.3 54.4999C82.3 54.4999 89.64 61.0999 90.43 69.4999H66.65C66.2522 69.4999 65.8707 69.658 65.5894 69.9393C65.308 70.2206 65.15 70.6021 65.15 70.9999C65.15 71.3978 65.308 71.7793 65.5894 72.0606C65.8707 72.3419 66.2522 72.4999 66.65 72.4999H92C92.3978 72.4999 92.7794 72.3419 93.0607 72.0606C93.342 71.7793 93.5 71.3978 93.5 70.9999C93.5 60.2499 84.44 51.4999 73.3 51.4999Z" fill="#58D158" stroke="#58D158" stroke-width="0.5"/>
<path d="M73 47.5C75.0767 47.5 77.1068 46.8842 78.8335 45.7304C80.5602 44.5767 81.906 42.9368 82.7007 41.0182C83.4955 39.0996 83.7034 36.9884 83.2982 34.9516C82.8931 32.9148 81.8931 31.0438 80.4246 29.5754C78.9562 28.1069 77.0852 27.1069 75.0484 26.7018C73.0116 26.2966 70.9005 26.5046 68.9818 27.2993C67.0632 28.094 65.4233 29.4398 64.2696 31.1665C63.1158 32.8932 62.5 34.9233 62.5 37C62.5026 39.784 63.6097 42.4531 65.5783 44.4217C67.5469 46.3903 70.216 47.4974 73 47.5ZM73 29.5C74.4834 29.5 75.9334 29.9399 77.1668 30.764C78.4001 31.5881 79.3614 32.7594 79.9291 34.1299C80.4968 35.5003 80.6453 37.0083 80.3559 38.4632C80.0665 39.918 79.3522 41.2544 78.3033 42.3033C77.2544 43.3522 75.918 44.0665 74.4632 44.3559C73.0083 44.6453 71.5003 44.4968 70.1299 43.9291C68.7594 43.3614 67.5881 42.4002 66.764 41.1668C65.9399 39.9334 65.5 38.4834 65.5 37C65.5026 35.0117 66.2937 33.1056 67.6996 31.6996C69.1056 30.2937 71.0117 29.5027 73 29.5Z" fill="#58D158" stroke="#58D158" stroke-width="0.5"/>
<path d="M34.49 71.0001C34.49 70.604 34.3333 70.2239 34.0542 69.9429C33.7751 69.6619 33.3961 69.5027 33 69.5001H9.57C10.36 61.1001 17.75 54.5001 26.71 54.5001C29.0131 54.4936 31.2955 54.9351 33.43 55.8001C33.6139 55.8743 33.8105 55.9115 34.0088 55.9097C34.207 55.9079 34.403 55.8671 34.5854 55.7895C34.7679 55.712 34.9333 55.5993 35.0722 55.4578C35.2111 55.3163 35.3208 55.1489 35.395 54.9651C35.4692 54.7812 35.5065 54.5845 35.5046 54.3863C35.5028 54.188 35.462 53.9921 35.3845 53.8096C35.3069 53.6272 35.1942 53.4617 35.0527 53.3228C34.9113 53.1839 34.7439 53.0743 34.56 53.0001C32.0667 51.989 29.4005 51.4728 26.71 51.4801C15.57 51.5001 6.5 60.2501 6.5 71.0001C6.5 71.3979 6.65804 71.7794 6.93934 72.0607C7.22064 72.342 7.60218 72.5001 8 72.5001H33C33.3961 72.4974 33.7751 72.3382 34.0542 72.0572C34.3333 71.7762 34.49 71.3962 34.49 71.0001Z" fill="#58D158" stroke="#58D158" stroke-width="0.5"/>
<path d="M27 47.5C29.0767 47.5 31.1068 46.8842 32.8335 45.7304C34.5602 44.5767 35.906 42.9368 36.7007 41.0182C37.4955 39.0996 37.7034 36.9884 37.2982 34.9516C36.8931 32.9148 35.8931 31.0438 34.4246 29.5754C32.9562 28.1069 31.0852 27.1069 29.0484 26.7018C27.0116 26.2966 24.9004 26.5046 22.9818 27.2993C21.0632 28.094 19.4233 29.4398 18.2696 31.1665C17.1158 32.8932 16.5 34.9233 16.5 37C16.5026 39.784 17.6097 42.4531 19.5783 44.4217C21.5469 46.3903 24.216 47.4974 27 47.5ZM27 29.5C28.4834 29.5 29.9334 29.9399 31.1668 30.764C32.4001 31.5881 33.3614 32.7594 33.9291 34.1299C34.4968 35.5003 34.6453 37.0083 34.3559 38.4632C34.0665 39.918 33.3522 41.2544 32.3033 42.3033C31.2544 43.3522 29.918 44.0665 28.4632 44.3559C27.0083 44.6453 25.5003 44.4968 24.1299 43.9291C22.7594 43.3614 21.5881 42.4002 20.764 41.1668C19.9399 39.9334 19.5 38.4834 19.5 37C19.5026 35.0117 20.2937 33.1056 21.6996 31.6996C23.1056 30.2937 25.0117 29.5027 27 29.5Z" fill="#58D158" stroke="#58D158" stroke-width="0.5"/>
<path d="M44.5 23.76C44.5 23.3622 44.342 22.9806 44.0607 22.6993C43.7794 22.418 43.3978 22.26 43 22.26C42.6022 22.26 42.2206 22.418 41.9393 22.6993C41.658 22.9806 41.5 23.3622 41.5 23.76C41.5 27.33 44.5 30.3 48.5 30.91V33C48.5 33.3978 48.658 33.7794 48.9393 34.0607C49.2206 34.342 49.6022 34.5 50 34.5C50.3978 34.5 50.7794 34.342 51.0607 34.0607C51.342 33.7794 51.5 33.3978 51.5 33V30.92C55.5 30.31 58.5 27.34 58.5 23.77C58.5 20.2 55.5 17.23 51.5 16.62V8.13C53.81 8.64 55.5 10.28 55.5 12.24C55.5 12.6378 55.658 13.0194 55.9393 13.3007C56.2206 13.582 56.6022 13.74 57 13.74C57.3978 13.74 57.7794 13.582 58.0607 13.3007C58.342 13.0194 58.5 12.6378 58.5 12.24C58.5 8.67 55.5 5.7 51.5 5.09V3C51.5 2.60218 51.342 2.22064 51.0607 1.93934C50.7794 1.65804 50.3978 1.5 50 1.5C49.6022 1.5 49.2206 1.65804 48.9393 1.93934C48.658 2.22064 48.5 2.60218 48.5 3V5.08C44.5 5.69 41.5 8.66 41.5 12.23C41.5 15.8 44.5 18.77 48.5 19.37V27.87C46.2 27.36 44.5 25.72 44.5 23.76ZM55.5 23.76C55.5 25.76 53.81 27.36 51.5 27.87V19.66C53.81 20.17 55.5 21.82 55.5 23.76ZM44.5 12.23C44.5 10.23 46.19 8.63 48.5 8.12V16.32C46.19 15.82 44.5 14.18 44.5 12.23Z" fill="#58D158" stroke="#58D158" stroke-width="0.5"/>
</svg>
