<svg width="111" height="123" viewBox="0 0 111 123" fill="none" xmlns="http://www.w3.org/2000/svg">
<g clip-path="url(#clip0_44_94)">
<path d="M41.759 15.1032L41.756 15.2772H76.833C76.922 15.2772 77.009 15.2822 77.095 15.2932C80.42 15.5602 83.582 16.1362 86.556 17.0732L86.564 17.0762C89.585 18.0262 92.417 19.3622 95.033 21.1382C96.86 22.3772 98.437 23.7282 99.801 25.1712C101.164 26.6122 102.328 28.1592 103.333 29.7892C104.89 32.3162 106.139 35.3121 107.136 38.4321C108.364 42.2721 109.212 46.3001 109.786 49.8471C110.015 51.2641 110.184 52.6481 110.235 53.8521C110.294 55.2341 110.186 56.4432 109.836 57.3242C109.63 57.8432 109.363 58.2862 109.035 58.6502C108.657 59.0712 108.204 59.3881 107.678 59.5991C104.011 61.0671 101.016 57.5191 99.218 55.3881L99.214 55.3911L98.883 54.9981C95.851 51.4621 92.126 48.9571 87.861 47.2661C83.528 45.5481 78.609 44.6551 73.263 44.3631L41.492 44.3652L41.507 44.6362V53.7631C41.507 53.8491 41.502 53.9331 41.492 54.0161C41.403 56.1581 40.693 57.6762 39.356 58.5602C38.016 59.4472 36.265 59.5301 34.099 58.8001C33.864 58.7211 33.651 58.6041 33.467 58.4591C23.015 50.2591 12.562 42.0621 2.11402 33.8571L1.96702 33.7301C0.230017 32.1521 -0.249983 30.5102 0.114017 28.8672C0.436017 27.4152 1.44702 26.1772 2.80602 25.1062L31.676 2.37915C32.926 1.39515 34.238 0.63015 35.473 0.26015C36.58 -0.0718497 37.66 -0.10185 38.654 0.25815C39.738 0.65115 40.604 1.44615 41.156 2.73315C41.549 3.65015 41.771 4.83115 41.771 6.31715V14.8732C41.772 14.9512 41.768 15.0282 41.759 15.1032ZM68.619 107.776L68.622 107.601H33.545C33.457 107.601 33.369 107.596 33.284 107.585C29.959 107.318 26.796 106.742 23.823 105.805L23.816 105.802C20.795 104.853 17.963 103.517 15.347 101.741C13.508 100.493 11.924 99.1342 10.556 97.6822C9.18002 96.2232 8.01002 94.6642 7.00502 93.0262C5.38302 90.3802 4.02502 87.0052 2.95002 83.4862C1.67402 79.3052 0.793017 74.9262 0.343017 71.3412C0.210017 70.2782 0.129017 69.2392 0.130017 68.2882C0.131017 67.2172 0.255017 66.2772 0.544017 65.5532C0.746017 65.0472 1.01102 64.6082 1.34202 64.2392C1.72702 63.8092 2.18002 63.4881 2.70202 63.2781C6.36902 61.8101 9.36502 65.3582 11.162 67.4902L11.166 67.4872L11.498 67.8801C14.53 71.4161 18.254 73.9212 22.52 75.6112C26.853 77.3292 31.772 78.2222 37.118 78.5142L68.888 78.5112L68.873 78.2402L68.872 69.1132C68.872 69.0272 68.878 68.9432 68.888 68.8602C68.977 66.7172 69.687 65.1992 71.024 64.3152C72.365 63.4282 74.115 63.3451 76.281 64.0761C76.516 64.1541 76.728 64.2712 76.913 64.4172L108.267 89.0191L108.414 89.1462C110.15 90.7262 110.631 92.3702 110.267 94.0112C109.945 95.4632 108.934 96.7012 107.575 97.7722L78.702 120.5C77.452 121.484 76.14 122.248 74.905 122.618C73.798 122.95 72.718 122.98 71.723 122.621C70.639 122.228 69.773 121.433 69.221 120.145C68.828 119.228 68.606 118.047 68.606 116.561V108.005C68.606 107.928 68.611 107.852 68.619 107.776ZM72.229 105.025C72.694 105.798 72.832 106.713 72.821 107.856L72.827 108.005V116.561C72.827 117.465 72.924 118.096 73.096 118.497C73.147 118.615 73.153 118.662 73.159 118.664C73.241 118.694 73.433 118.66 73.703 118.58C74.402 118.371 75.237 117.864 76.099 117.186L104.968 94.4582C105.62 93.9442 106.079 93.4721 106.161 93.1041C106.195 92.9471 106.04 92.6882 105.606 92.2892L74.6 67.9562C73.936 67.7572 73.519 67.7142 73.347 67.8282C73.201 67.9252 73.114 68.3141 73.088 68.9931L73.092 78.1652C73.167 79.2002 73.004 80.1202 72.554 80.8992C72.023 81.8232 71.2 82.4312 70.038 82.6702C69.874 82.7112 69.703 82.7332 69.526 82.7332H37.117V82.7281L37.01 82.7252C31.194 82.4162 25.795 81.4321 20.97 79.5201C16.08 77.5821 11.804 74.7031 8.31002 70.6311L7.95002 70.2082L7.95402 70.2042L7.95002 70.1992C6.95402 69.0182 5.33402 67.0972 4.43302 67.1502C4.36402 67.3682 4.33302 67.7662 4.33202 68.2902C4.33202 68.9732 4.40602 69.8522 4.52902 70.8322C4.95702 74.2492 5.78402 78.3792 6.97102 82.2672C7.94602 85.4582 9.16202 88.4952 10.597 90.8352C11.451 92.2292 12.448 93.5562 13.62 94.7992C14.799 96.0482 16.148 97.2092 17.703 98.2642C19.941 99.7832 22.411 100.941 25.083 101.784C27.738 102.623 30.588 103.139 33.604 103.383H68.996V103.392C70.569 103.392 71.57 103.931 72.229 105.025ZM38.149 17.8542C37.683 17.0822 37.545 16.1662 37.557 15.0232L37.552 14.8742V6.31715C37.552 5.41315 37.454 4.78215 37.283 4.38115C37.232 4.26315 37.226 4.21615 37.22 4.21415C37.137 4.18415 36.946 4.21815 36.676 4.29815C35.977 4.50815 35.141 5.01415 34.28 5.69215L5.41102 28.4192C4.75902 28.9332 4.30002 29.4062 4.21902 29.7732C4.18402 29.9312 4.34002 30.1892 4.77402 30.5882C15.106 38.7031 25.445 46.8111 35.78 54.9221C36.444 55.1221 36.861 55.1641 37.031 55.0501C37.178 54.9531 37.265 54.5631 37.29 53.8851L37.287 44.7132C37.212 43.6772 37.375 42.7571 37.825 41.9781C38.357 41.0541 39.18 40.4461 40.34 40.2071C40.504 40.1661 40.675 40.1441 40.853 40.1441H73.262V40.1491L73.369 40.1521C79.184 40.4601 84.584 41.4452 89.408 43.3582C94.298 45.2962 98.574 48.1752 102.068 52.2472L102.427 52.6701L102.423 52.6731L102.427 52.6771C103.423 53.8581 105.043 55.7802 105.944 55.7262C106.044 55.4212 106.064 54.8101 106.031 54.0141C105.988 52.9971 105.838 51.7771 105.631 50.5031C105.084 47.1211 104.28 43.2992 103.129 39.6982C102.231 36.8882 101.119 34.2112 99.754 31.9952C98.903 30.6142 97.908 29.2952 96.734 28.0532C95.561 26.8132 94.218 25.6602 92.674 24.6132C90.436 23.0942 87.966 21.9362 85.294 21.0932C82.639 20.2542 79.789 19.7382 76.773 19.4942H41.382V19.4862C39.809 19.4872 38.809 18.9492 38.149 17.8542Z" fill="#58D158"/>
</g>
<defs>
<clipPath id="clip0_44_94">
<rect width="110.379" height="122.879" fill="white"/>
</clipPath>
</defs>
</svg>
